<?xml version="1.0" encoding="UTF-8"?><svg id="a" xmlns="http://www.w3.org/2000/svg" viewBox="0 0 200 200"><path d="M184.11,0H15.89C7.11,0,0,7.11,0,15.89V184.11c0,8.78,7.11,15.89,15.89,15.89H184.11c8.78,0,15.89-7.11,15.89-15.89V15.89C200,7.11,192.89,0,184.11,0ZM10.1,185.17l4.73,4.73c-2.4-.44-4.29-2.33-4.73-4.73Zm18.97,4.83l-19.07-19.07v-27.86l46.93,46.93H29.07Zm42,0L10,128.93v-27.86l88.93,88.93h-27.86Zm42,0L10,86.93v-27.86L140.93,190h-27.86Zm42,0L10,44.93V17.07L182.93,190h-27.86Zm34.93-7.07L17.07,10h27.86L190,155.07v27.86Zm0-42L59.07,10h27.86l103.07,103.07v27.86Zm0-42L101.07,10h27.86l61.07,61.07v27.86Zm0-42L143.07,10h27.86l19.07,19.07v27.86Zm-4.83-46.83c2.4,.44,4.29,2.33,4.73,4.73l-4.73-4.73Z"/></svg>