<?xml version="1.0" encoding="UTF-8"?><svg id="a" xmlns="http://www.w3.org/2000/svg" viewBox="0 0 200 200"><path d="M184.11,0H15.89C7.11,0,0,7.11,0,15.89V184.11c0,8.78,7.11,15.89,15.89,15.89H184.11c8.78,0,15.89-7.11,15.89-15.89V15.89C200,7.11,192.89,0,184.11,0ZM109.77,151.61l-40.22-49.48,40.08-45.56L69.59,10h25.81l39.97,46.49-39.92,45.38,39.78,48.94-40.3,39.08,.11,.11h-24.85l39.59-38.39Zm-53.73,38.39H31.18l39.59-38.39L30.55,102.13l40.08-45.56L30.59,10h25.81l39.97,46.49-39.92,45.38,39.78,48.94-40.3,39.08,.11,.11Zm92.73-38.39l-40.22-49.48,40.08-45.56L108.59,10h25.81l39.97,46.49-39.92,45.38,39.78,48.94-40.3,39.08,.11,.11h-24.85l39.59-38.39ZM10,46.75l8.37,9.74-8.37,9.52v-19.26Zm0,93.93l8.23,10.13-8.23,7.98v-18.11Zm0,43.43v-11.39l21.77-21.11-21.77-26.78v-43.68l21.63-24.58L10,31.41V15.89c0-3.25,2.64-5.89,5.89-5.89h1.52L57.37,56.49,17.45,101.87l39.78,48.94-40.3,39.08,.11,.11h-1.14c-3.25,0-5.89-2.64-5.89-5.89ZM190,106.38l-3.45-4.25,3.45-3.93v8.17Zm0-23.31l-16.55,18.81,16.55,20.36v51.11l-17.07,16.55,.11,.11h-24.85l39.59-38.39-40.22-49.48,40.08-45.56L147.59,10h25.81l16.59,19.3v53.76Zm-2.44-71.93c.74,.54,1.35,1.25,1.78,2.07l-1.78-2.07Z"/></svg>