<?xml version="1.0" encoding="UTF-8"?><svg id="a" xmlns="http://www.w3.org/2000/svg" viewBox="0 0 200 200"><path d="M184.11,0H15.89C7.11,0,0,7.11,0,15.89V184.11c0,8.78,7.11,15.89,15.89,15.89H184.11c8.78,0,15.89-7.11,15.89-15.89V15.89C200,7.11,192.89,0,184.11,0ZM10,90.28l9.71,9.71-9.71,9.71v-19.43Zm0,33.57l23.86-23.86-23.86-23.86v-26.86l50.71,50.71L10,150.7v-26.86Zm0,60.26v-19.26L74.86,99.99,10,35.14V15.89c0-2.38,1.42-4.43,3.46-5.36L102.93,100,13.46,189.47c-2.04-.93-3.46-2.98-3.46-5.36Zm17.07,5.89L117.07,100,27.07,10h26.86l90,90L53.93,190H27.07Zm41,0l90-90L68.07,10h28.86l90,90-90,90h-28.86Zm121.93-10.07l-10.07,10.07h-27.86l37.93-37.93v27.86Zm0-42l-52.07,52.07h-26.86l78.93-78.93v26.86Zm0-49L111.07,10h26.86l52.07,52.07v26.86Zm0-41L152.07,10h27.86l10.07,10.07v27.86Z"/></svg>