<?xml version="1.0" encoding="UTF-8"?><svg xmlns="http://www.w3.org/2000/svg" viewBox="0 0 200 200"><g id="a"/><g id="b"><path d="M176.42,155.3c12.48-16.28,19.92-36.62,19.92-58.67C196.35,43.35,153,0,99.72,0S3.08,43.35,3.08,96.63c0,22.08,7.46,42.43,19.96,58.72-10.63,1.79-18.76,11.03-18.76,22.16,0,12.4,10.09,22.49,22.49,22.49s21.66-9.31,22.42-21.03c14.71,9.06,32.01,14.3,50.51,14.3s36.08-5.33,50.86-14.52c.65,11.83,10.44,21.26,22.43,21.26s22.49-10.09,22.49-22.49c0-11.24-8.3-20.55-19.08-22.21Zm-71.34,25.99c1.2-53.87,24.82-102.3,61.88-136.31,11.02,14.32,17.6,32.23,17.6,51.65,0,44.98-35.19,81.88-79.48,84.66ZM99.72,11.78c23.13,0,44.12,9.31,59.44,24.38-29.02,26.59-50.31,61.48-60.03,100.89-9.66-39.13-30.72-73.82-59.43-100.33,15.37-15.4,36.6-24.94,60.02-24.94ZM31.97,45.61c36.65,33.96,59.98,82.09,61.2,135.59-43.74-3.35-78.3-39.99-78.3-84.57,0-19.14,6.37-36.81,17.1-51.02Zm-5.19,142.61c-5.9,0-10.71-4.8-10.71-10.71s4.8-10.71,10.71-10.71,10.71,4.8,10.71,10.71-4.8,10.71-10.71,10.71Zm146.23,0c-5.9,0-10.71-4.8-10.71-10.71s4.8-10.71,10.71-10.71,10.71,4.8,10.71,10.71-4.8,10.71-10.71,10.71Z"/></g></svg>